<?xml version="1.0" encoding="utf-8"?>
<!-- Generator: Adobe Illustrator 25.1.0, SVG Export Plug-In . SVG Version: 6.00 Build 0)  -->
<svg version="1.1" id="Layer_1" xmlns="http://www.w3.org/2000/svg" xmlns:xlink="http://www.w3.org/1999/xlink" x="0px" y="0px"
	 viewBox="0 0 1080 243.6" style="enable-background:new 0 0 1080 243.6;" xml:space="preserve">
<style type="text/css">
	.st0{fill:#FFFFFF;}
</style>
<g>
	<g>
		<path class="st0" d="M906.1,202.1c-9.3,0-17.6-2.3-24.8-7c-7.3-4.6-12.9-11.4-16.9-20.4c-4-8.9-6.1-19.8-6.1-32.6v-4.6
			c0-12.8,2-23.7,6.1-32.6c4-8.9,9.7-15.7,16.9-20.4c7.2-4.6,15.5-7,24.8-7c8.7,0,16.1,1.7,22.3,5c6.2,3.4,11.2,7.9,15,13.7V39.2
			h23.3v160.2h-23.3v-16c-3.8,5.8-8.8,10.4-15,13.7C922.2,200.4,914.8,202.1,906.1,202.1z M911.8,181.3c4.3,0,8.4-0.8,12.2-2.3
			c3.9-1.5,7.8-4.2,11.8-8c2.6-2.3,4.6-5,5.9-8.1c1.4-3.1,2.1-7.1,2.1-12v-22c0-4.7-0.7-8.7-2.1-11.9s-3.4-5.9-5.9-8.2
			c-4-4-7.9-6.7-11.8-8.1c-3.9-1.4-8-2.2-12.2-2.2c-5.9,0-11.2,1.3-15.8,3.8c-4.6,2.5-8.2,6.7-10.8,12.5c-2.6,5.8-3.9,13.5-3.9,23.1
			v4.1c0,9.6,1.3,17.3,3.9,23.1c2.6,5.8,6.2,10,10.8,12.5C900.6,180,905.8,181.3,911.8,181.3L911.8,181.3z"/>
		<path class="st0" d="M321.4,199.4V62.1h-52.9V39.2h130.2v22.9h-52.9v137.3H321.4z"/>
		<path class="st0" d="M417.1,199.4V39.2h23.1v58.6c3.4-6.3,8-11.2,14-14.8c5.9-3.6,13.3-5.4,22-5.4c13.3,0,23.1,3.8,29.5,11.3
			c6.4,7.5,9.6,17.4,9.6,29.6v80.8h-23.1v-79c0-7-1.9-12.5-5.8-16.5c-3.9-4-9.3-5.9-16.1-5.9c-4.7,0-9,0.8-12.7,2.4
			c-3.7,1.6-7,4.1-9.7,7.4c-2.4,2.7-4.3,5.8-5.6,9.3c-1.3,3.4-1.9,7.7-1.9,12.7v69.6L417.1,199.4L417.1,199.4z"/>
		<path class="st0" d="M613.9,80.3c-4.7-1.8-10.1-2.7-16.3-2.7c-8.1,0-15.3,1.8-21.5,5.4c-6.3,3.6-10.9,8.7-14,15.2V80.4h-23.3v119
			h23.3v-68.2c0-5.6,0.6-10.3,1.9-13.8c1.3-3.6,3.3-6.8,6.1-9.7c2.6-2.9,5.7-5.2,9.4-7c3.7-1.8,7.8-2.6,12.4-2.6
			c5.4,0,9.9,1.5,13.3,4.3L613.9,80.3L613.9,80.3z"/>
		<path class="st0" d="M687.2,177.3c-5,3-11.3,4.5-18.9,4.5c-10.2,0-18.2-3.5-23.9-10.4c-5.5-6.7-8.4-16.1-8.6-28h84.9v-9.6
			c0-10.2-1.9-19.6-5.6-28c-3.7-8.5-9.6-15.3-17.5-20.4c-7.9-5.1-18-7.7-30.2-7.7c-10.5,0-19.9,2.6-28.1,7.9
			c-8.2,5.3-14.7,12.4-19.3,21.5c-4.7,9.1-7,19.3-7,30.6v4.6c0,12.2,2.3,22.8,7,31.8c4.7,9,11.1,15.9,19.3,20.8
			c8.2,4.9,17.8,7.3,28.6,7.3c12.8,0,23.5-2.7,32.2-8c8.6-5.3,14.9-12.9,18.9-22.7l-20.1-8C696,169.7,692.1,174.3,687.2,177.3
			L687.2,177.3z M644.7,106.9c5.9-6.6,13.5-9.8,22.7-9.8c9.9,0,17.3,2.6,22.2,7.8c4.9,5.2,7.6,12.2,8.2,21.1h-61.4
			C637.6,118,640.4,111.7,644.7,106.9z"/>
		<path class="st0" d="M847.5,199.4c0-14.6-2.3-27.2-7-37.8c-2.7-6.1-6.3-11.4-10.7-15.9c0-1.1,0.1-2.2,0.1-3.3v-18.3
			c0-14.7-4.1-26.1-12.2-34.2c-8.2-8.2-19.3-12.2-33.3-12.2c-12.5,0-22.7,2.7-30.7,8.2c-7.7,5.3-12.9,11.9-15.5,19.6l19.7,7.8
			c1.8-5.2,4.9-9.2,9.2-11.9c4.3-2.7,9.8-4.1,16.5-4.1c7.3,0,13.1,1.9,17.3,5.8c4.2,3.9,6.3,10.2,6.3,18.9v10
			c-7.4-2.3-15.8-3.4-25.2-3.4s-17.4,1.5-24.3,4.5c-6.9,3-12.2,7.2-15.9,12.7c-3.7,5.5-5.6,11.9-5.6,19.2c0,7.3,1.5,13.3,4.6,18.9
			c3,5.6,7.7,10,13.8,13.3c6.2,3.3,13.8,4.9,23,4.9c10.7,0,19.9-2.6,27.7-7.8c7.6-5,13.5-11.9,17.8-20.6c2.3,7.5,3.5,16,3.7,25.6
			L847.5,199.4L847.5,199.4z M800.6,173.5c-4.3,6.3-11.2,9.4-20.8,9.4c-7,0-12.3-1.7-15.9-5c-3.6-3.4-5.4-7.6-5.4-12.8
			s1.9-9.5,5.8-13.3c3.9-3.8,10-5.7,18.2-5.7c10.1,0,18.3,1.9,24.4,5.7C806.5,160.7,804.4,167.9,800.6,173.5L800.6,173.5z"/>
		<path class="st0" d="M1062.9,135.8c-5.6-2.4-12-4.2-19.3-5.3l-12.6-2.1c-7.2-1.1-12.7-2.9-16.6-5.5c-3.9-2.6-5.8-6.1-5.8-10.5
			c0-4.7,2.4-8.5,7.2-11.3c4.8-2.8,10.3-4.2,16.6-4.2c6.3,0,11.1,1.2,15.3,3.7c4,2.3,7,5.8,9,10.5l19.2-8.2
			c-3.1-8.2-8.1-14.5-15.2-18.8s-16.5-6.4-28.3-6.4c-8.2,0-15.8,1.4-22.8,4.2c-6.9,2.8-12.4,6.8-16.5,12c-4,5.2-6.1,11.3-6.1,18.3
			c0,10.1,3.3,18,9.8,23.9s14.9,9.6,24.9,11.1l12.6,2.1c7,1.1,12.6,2.7,16.8,4.8c4.2,2.1,6.3,5.8,6.3,11c0,5.5-2.3,9.8-6.8,12.8
			c-4.5,3.1-10.7,4.6-18.7,4.6c-7,0-12.9-1.7-17.5-5.1c-4.7-3.4-8-8-10-13.8l-20.9,9c3,8.5,8.3,15.6,16,21.1c8,5.7,19,8.6,32.8,8.6
			c9.6,0,17.9-1.6,24.9-4.9c7-3.3,12.5-7.8,16.5-13.5c4-5.7,5.9-12.3,5.9-19.8c0-7.5-1.5-13-4.4-17.6
			C1072.7,141.7,1068.5,138.2,1062.9,135.8L1062.9,135.8z"/>
	</g>
	<path class="st0" d="M108.6,243.4L108.6,243.4c-36.3-0.2-64.2-12.2-83-35.6C8.9,187,0.3,158.1,0,121.9v-0.2
		c0.3-36.2,8.9-65.2,25.6-85.9C44.3,12.4,72.2,0.5,108.5,0.2h0.1h0.1c27.8,0.2,51.1,7.3,69.2,21.2c17,13.1,29,31.7,35.6,55.4
		l-20.7,5.8c-11.2-40.1-39.5-60.6-84.1-60.9c-29.5,0.2-51.8,9.5-66.3,27.5c-13.6,16.9-20.6,41.3-20.8,72.6
		c0.3,31.3,7.3,55.7,20.8,72.6c14.5,18.1,36.8,27.3,66.3,27.5c26.6-0.2,44.2-6.4,58.8-20.7c16.7-16.3,16.4-36.4,11-48.6
		c-3.1-7.2-8.9-13.2-16.6-17.7c-1.9,13.7-6.3,24.8-13,33.1c-9,11.2-21.7,17.3-37.8,18.1c-12.2,0.7-23.9-2.2-33-8.1
		c-10.8-7-17.1-17.6-17.8-30c-0.7-12.1,4.1-23.1,13.5-31.2c8.9-7.7,21.5-12.2,36.3-13.1c10.9-0.6,21.1-0.1,30.6,1.4
		c-1.3-7.5-3.8-13.5-7.6-17.8c-5.2-5.9-13.2-9-23.9-9c-0.1,0-0.2,0-0.3,0c-8.6,0-20.2,2.3-27.6,13.4l-17.8-12
		c9.9-14.7,26-22.8,45.4-22.8c0.1,0,0.3,0,0.4,0c32.4,0.2,51.6,20,53.6,54.6c1.1,0.5,2.2,0.9,3.2,1.4c15.1,7.1,26.1,17.9,31.9,31.1
		c8.1,18.5,8.8,48.5-15.7,72.5C163.6,234.9,140.9,243.1,108.6,243.4L108.6,243.4L108.6,243.4z M118.7,124.9c-2.5,0-4.9,0.1-7.5,0.2
		c-18.6,1.1-30.2,9.6-29.5,21.7c0.7,12.7,14.7,18.6,28.2,17.9c12.4-0.7,28.6-5.5,31.3-37.6C134.3,125.7,126.8,124.9,118.7,124.9z"/>
</g>
</svg>
