<svg xmlns="http://www.w3.org/2000/svg" width="720" height="720">
	<rect x="0" y="0" width="720" height="720" rx="100" ry="100" fill="#FF4040" />
	<path
		d="m356.875 100.625 3.293.011c21.018.083 41.344 1.406 61.832 6.364q2.466.48 4.938.938C473.749 117.48 516.808 142 551 175l1.8 1.733c7.256 7.026 14.266 14.062 20.2 22.267l1.432 1.97c10.545 14.623 19.876 29.746 25.548 46.944.959 2.9 2.042 5.701 3.207 8.524 2.075 5.127 3.698 10.11 4.313 15.625.457 3.602 1.29 6.535 2.5 9.937 9.624 40.762 2.832 91.466-19 127-2.825 4.156-5.822 8.109-9 12l-1.96 2.426c-12.081 14.274-28.087 23.987-45.262 30.86-1.52.61-3.027 1.249-4.532 1.894-25.448 10.275-62.27 13.815-88.246 4.82l-3.777-1.285C419.333 452.9 403.533 440.582 389 427l-2.75 2.438c-12.149 10.347-25.018 18.33-39.5 24.937l-2.182 1.012c-16.905 7.475-38.422 6.94-55.568.613-1.052-.385-2.104-.77-3.187-1.168-26.793-10.56-51.732-32.079-63.5-58.644-9.89-25.233-6.227-54.139 4.18-78.711 8.632-19.6 20.796-36.048 35.507-51.477l2.203-2.363C286.44 240.454 315.567 225.51 347 220l3.285-.59c5.365-.592 10.696-.635 16.09-.66l3.29-.062c9.84-.048 19.606 1.906 26.995 8.878 6.8 7.47 7.92 13.705 7.684 23.707-1.007 10.92-6.85 18.12-15.024 24.985-6.716 5.153-14.521 8.139-22.257 11.43q-2.27.983-4.538 1.97c-6.8 2.95-13.617 5.843-20.528 8.523-2.793 1.146-5.458 2.503-8.134 3.897C332 303 332 303 328.5 304.313c-10.836 5.224-18.924 16.645-23.286 27.675-3.697 10.964-7.261 23.817-3.07 35.09 3.397 6.13 7.17 9.693 13.856 11.922 10.948 1.335 20.63-2.145 29.375-8.687 8.613-7.51 13.52-17.534 19.075-27.344 20.269-35.74 20.269-35.74 37.55-40.969 3.158-.43 6.254-.465 9.438-.437l2.447-.061c6.91.006 11.802 1.996 17.287 6.139 8.523 8.691 10.008 16.728 10.015 28.546l.038 3.042c.01 5.455-.433 10.289-1.764 15.571-.83 3.961-.79 7.917-.774 11.95l-.048 2.496c-.004 4.735.25 7.937 3.361 11.754 3.021 2.014 3.642 2.255 7.034 2.306l2.452.049 2.65.016c.913.01 1.825.018 2.765.027q2.91.022 5.818.028a651 651 0 0 1 8.736.111c15.2.132 31.177-1.674 43.24-11.986 12.562-13.035 12.892-33.777 12.805-50.738l-.002-2.612c-.041-12.767-.998-24.156-5.498-36.201l-.871-3.148c-8.327-29.723-33.91-55.115-60.106-69.94a542 542 0 0 0-9.046-4.857c-2.653-1.416-5.246-2.93-7.852-4.43-5.477-2.982-11.183-4.8-17.125-6.625q-2.126-.725-4.25-1.453c-4.82-1.613-9.691-2.897-14.625-4.11l-2.668-.657c-42.933-10.45-92.718-7.089-131.459 15.381-9.385 5.726-17.847 12.486-25.998 19.839l-2.352 2.098c-11.061 10.438-20.098 23.504-27.458 36.76a292 292 0 0 1-2.804 4.919c-4.82 8.527-8.084 17.115-11.073 26.41l-.72 2.203c-3.499 10.736-6.907 21.42-8.593 32.61l-.337 2.14c-4.285 28.915-4.646 62.94 4.47 90.887.867 2.973.867 2.973 1.297 6.54.592 3.566 1.623 5.443 3.57 8.433q.804 2.295 1.5 4.625c13.743 39.009 48.6 69.243 84.816 86.668A115 115 0 0 0 305 532l2.125.695c31.656 10.263 64.284 10.732 96.688 3.93l2.858-.596c5.584-1.232 10.846-2.849 16.192-4.869 3.758-1.39 7.547-2.665 11.348-3.93l2.223-.74q5.89-1.957 11.784-3.901l4.817-1.593 2.374-.785a475 475 0 0 0 13.087-4.55c13.657-4.954 25.448-7.505 39.43-1.4 9.091 5.141 15.519 12.427 20.074 21.739l1.023 1.879c3.378 7.174 3.332 16.504 1.133 23.996-7.906 17.094-26.377 27.264-43.293 33.785-3.503 1.28-7.04 2.446-10.588 3.591-2.38.784-4.74 1.617-7.1 2.46-16.4 5.785-33.237 9.671-50.323 12.848-1.857.271-1.857.271-2.852 1.441-15.559 2.949-31.005 3.473-46.804 3.391-3.692-.016-7.383 0-11.075.02-14.562.011-28.788-.695-43.121-3.411l-1-1a212 212 0 0 0-5.062-.625c-6.887-1.008-13.449-2.801-20.125-4.75l-3.057-.885A180 180 0 0 1 267 602l-2.651-1.111q-4.055-1.713-8.099-3.452l-2.746-1.17c-4.577-1.96-9.083-3.976-13.504-6.267v-2l-2.035-.223c-3.926-1.029-7.028-3.039-10.403-5.215l-2.128-1.355C200.001 564.856 175.32 544.179 157 520l-1.463-1.92C141.786 499.926 131.622 481.055 123 460l-1.032-2.449c-4.732-11.425-7.713-23.138-10.156-35.238l-.787-3.76c-2.36-11.519-3.182-22.488-3.193-34.24l-.01-3.931q-.009-4.105-.007-8.21 0-4.15-.02-8.301c-.124-25.249 2.121-48.643 8.142-73.183l.73-3.001a152 152 0 0 1 5.425-17.21c.898-2.449 1.643-4.903 2.346-7.414 1.93-6.605 4.286-13.452 7.968-19.293 1.422-2.47 2.396-4.76 3.403-7.415 2.22-5.685 5.12-10.816 8.254-16.042l1.729-2.902A229 229 0 0 1 162 194l2.367-3.008A370 370 0 0 1 171 183l1.926-2.266c24.166-27.591 53.608-51.154 88.512-63.468a149 149 0 0 0 8.5-3.329c27.373-11.004 57.726-13.528 86.937-13.312"
		fill="#FFFFFF" />
</svg>