<svg id="svg" xmlns="http://www.w3.org/2000/svg" xmlns:xlink="http://www.w3.org/1999/xlink" width="400" height="400"
	viewBox="0, 0, 400,400">
	<!-- add border radius -->
	<rect width="400" height="400" fill="white" rx="60" />

	<g id="svgg">
		<path id="path0"
			d="M189.661 21.067 C 141.393 27.727,112.189 79.599,118.761 147.000 L 119.687 156.500 111.571 165.000 C 55.697 223.520,71.361 326.244,141.500 361.275 C 173.719 377.366,239.692 380.365,252.042 366.300 C 256.299 361.450,256.319 353.508,252.084 348.766 L 249.167 345.500 239.334 345.551 C 233.925 345.579,224.100 345.977,217.500 346.435 C 140.906 351.749,91.387 288.455,116.234 217.000 C 141.620 143.997,251.197 134.995,283.536 203.256 C 300.827 239.753,289.400 295.084,266.967 283.483 C 260.705 280.245,260.551 279.258,260.000 238.821 C 259.522 203.748,259.410 202.021,257.438 199.383 C 247.412 185.966,226.282 191.118,224.243 207.475 L 223.498 213.451 220.194 208.302 C 204.739 184.218,164.185 187.513,148.306 214.143 C 136.584 233.800,135.848 265.830,146.612 287.845 C 161.752 318.810,205.398 325.218,221.665 298.864 C 226.011 291.822,225.169 291.865,228.909 298.493 C 238.441 315.382,269.377 319.907,292.271 307.761 C 333.677 285.793,334.731 203.587,294.126 163.000 L 285.622 154.500 285.509 132.500 C 285.111 55.250,248.702 12.920,189.661 21.067 M217.821 56.985 C 235.091 66.191,245.985 93.019,245.997 126.375 L 246.000 134.250 243.250 133.663 C 241.738 133.340,237.350 132.368,233.500 131.503 C 214.155 127.156,175.907 129.275,159.590 135.597 C 154.789 137.457,159.610 97.004,166.026 81.591 C 176.470 56.505,197.858 46.344,217.821 56.985 M209.739 227.209 C 224.806 237.179,223.974 271.937,208.458 280.725 C 190.451 290.925,174.156 267.780,180.843 241.500 C 184.633 226.602,198.476 219.755,209.739 227.209 "
			stroke="none" fill="#000000" fill-rule="evenodd"></path>
	</g>
</svg>